<?xml version="1.0" encoding="utf-8"?>
<!-- Generator: Adobe Illustrator 26.3.1, SVG Export Plug-In . SVG Version: 6.00 Build 0)  -->
<svg version="1.1" id="Layer_1" xmlns="http://www.w3.org/2000/svg" xmlns:xlink="http://www.w3.org/1999/xlink" x="0px" y="0px"
	 viewBox="0 0 56.7 51.1" style="enable-background:new 0 0 56.7 51.1;" xml:space="preserve">
<style type="text/css">
	.st0{opacity:0.8;fill:url(#SVGID_1_);enable-background:new    ;}
	.st1{opacity:0.9;fill:url(#SVGID_00000117678092364957576530000010162168402238912440_);enable-background:new    ;}
	.st2{opacity:0.9;fill:url(#SVGID_00000140015952140563310320000012635778344410458501_);enable-background:new    ;}
	.st3{opacity:0.9;fill:url(#SVGID_00000079463036169922548190000013487572241962990218_);enable-background:new    ;}
	.st4{fill:url(#SVGID_00000076570367260598551760000013079261490021455239_);}
</style>
<g>
	
		<linearGradient id="SVGID_1_" gradientUnits="userSpaceOnUse" x1="27.8917" y1="6.0529" x2="27.8917" y2="36.3163" gradientTransform="matrix(1 0 0 -1 0 54)">
		<stop  offset="0" style="stop-color:#FFFFFF;stop-opacity:0"/>
		<stop  offset="0.1447" style="stop-color:#FFFFFF;stop-opacity:0.1447"/>
		<stop  offset="1" style="stop-color:#FFFFFF"/>
	</linearGradient>
	<path class="st0" d="M31.2,37.7l0.1-0.1C31.2,37.7,31.1,37.7,31.2,37.7C31.1,37.8,31.1,37.8,31.2,37.7z M31.3,37.6
		c0.3-0.2,0.6-0.4,0.8-0.6C31.8,37.3,31.6,37.5,31.3,37.6z M24,37.1c-0.1-0.1-0.2-0.2-0.3-0.3C23.7,36.9,23.8,37,24,37.1z
		 M24.5,37.5c-0.1,0-0.1-0.1-0.2-0.1C24.4,37.4,24.5,37.5,24.5,37.5z M23.4,36.6c0.1,0.1,0.2,0.1,0.2,0.2
		C23.6,36.7,23.5,36.7,23.4,36.6L23.4,36.6z M24.3,37.4c-0.1-0.1-0.3-0.2-0.4-0.3C24.1,37.2,24.2,37.3,24.3,37.4z M29.8,38.3
		c0.3-0.1,0.5-0.2,0.8-0.3C30.3,38.1,30,38.2,29.8,38.3z M29.1,38.5c0.1,0,0.2,0,0.3-0.1C29.3,38.4,29.2,38.4,29.1,38.5z M29.4,38.4
		c0.1,0,0.3-0.1,0.4-0.1C29.6,38.3,29.5,38.4,29.4,38.4z M28.1,38.5c0.3,0,0.7,0,1-0.1C28.7,38.5,28.4,38.5,28.1,38.5z M27.3,38.5
		c-0.4,0-0.7-0.1-1.1-0.2C26.5,38.4,26.9,38.5,27.3,38.5z M27.4,38.5h-0.1C27.3,38.5,27.3,38.5,27.4,38.5z M28,38.5
		C28,38.5,28.1,38.5,28,38.5L28,38.5L28,38.5z M28,38.5c-0.2,0-0.4,0-0.6,0C27.6,38.5,27.8,38.5,28,38.5z M26.2,38.3h-0.1
		C26.1,38.3,26.1,38.3,26.2,38.3z M26,38.2c-0.2-0.1-0.3-0.1-0.5-0.2C25.7,38.1,25.9,38.2,26,38.2z M25.5,38.1
		c-0.1,0-0.1-0.1-0.2-0.1C25.4,38,25.5,38,25.5,38.1z M25.3,38c-0.3-0.1-0.5-0.3-0.8-0.4C24.8,37.7,25.1,37.8,25.3,38z M21.9,33.9
		L21.9,33.9c-0.1-0.3-0.1-0.6-0.2-0.8C21.7,33.3,21.8,33.6,21.9,33.9z M41.4,24.5c-2.6-4.6-7.3-7.3-12.2-7.8h-0.1l-3,0.1H26
		c-2,0.2-3.9,0.9-5.8,1.9c-7,4-9.7,12.6-6.4,19.8l0,0l1.5,2.7c4.6,6.4,13.3,8.4,20.2,4.4c2-1.2,3.7-2.7,4.9-4.5l1.5-2.7
		C44,34.1,43.9,28.9,41.4,24.5z M32.6,36.6L32.6,36.6c-0.1,0.2-0.3,0.3-0.5,0.4c-0.3,0.2-0.5,0.4-0.8,0.6c-0.1,0-0.1,0.1-0.2,0.1
		c-0.2,0.1-0.4,0.2-0.6,0.3s-0.5,0.2-0.8,0.3c-0.1,0-0.2,0.1-0.4,0.1c-0.1,0-0.2,0-0.3,0.1c-0.3,0.1-0.6,0.1-1,0.1h-0.1
		c-0.2,0-0.4,0-0.6,0h-0.1c-0.4,0-0.7-0.1-1.1-0.2H26c-0.2-0.1-0.3-0.1-0.5-0.2c-0.1,0-0.1-0.1-0.2-0.1c-0.3-0.1-0.5-0.3-0.8-0.4
		c-0.1,0-0.1-0.1-0.2-0.1c-0.1-0.1-0.3-0.2-0.4-0.3s-0.2-0.2-0.3-0.3c-0.1-0.1-0.2-0.1-0.2-0.2l0,0c-0.4-0.4-0.7-0.8-0.9-1.2
		c-0.3-0.5-0.5-1-0.6-1.4l0,0c-0.1-0.3-0.1-0.6-0.2-0.8c0,0,0,0,0-0.1c0-0.3,0-0.5,0-0.8l0,0c0-0.4,0-0.8,0.1-1.2
		c0-0.1,0.1-0.3,0.1-0.4c0.1-0.3,0.1-0.5,0.3-0.8c0.1-0.2,0.2-0.5,0.4-0.7c0.2-0.4,0.5-0.8,0.9-1.2c0.1-0.1,0.1-0.2,0.2-0.2
		c0.2-0.2,0.5-0.5,0.8-0.7c0.1-0.1,0.2-0.2,0.4-0.2c0.2-0.1,0.3-0.2,0.5-0.3l0.4-0.2c0.2-0.1,0.3-0.1,0.5-0.2
		c1.2-0.4,2.4-0.4,3.5-0.1c0.1,0,0.3,0.1,0.4,0.1s0.3,0.1,0.4,0.1c0.2,0.1,0.3,0.1,0.5,0.2c0.1,0.1,0.2,0.1,0.3,0.2
		c0.2,0.1,0.3,0.2,0.5,0.3c0.1,0.1,0.3,0.2,0.4,0.3c0.3,0.2,0.5,0.5,0.8,0.8c0.1,0.1,0.2,0.3,0.3,0.4s0.1,0.2,0.2,0.3
		c0.4,0.7,0.7,1.4,0.8,2.2c0,0.2,0.1,0.4,0.1,0.6s0,0.4,0,0.6c0,0.2,0,0.3,0,0.5c0,0.5-0.1,0.9-0.2,1.3
		C33.8,34.9,33.3,35.9,32.6,36.6z M31.2,37.7l0.1-0.1C31.2,37.7,31.1,37.7,31.2,37.7C31.1,37.8,31.1,37.8,31.2,37.7z M31.3,37.6
		c0.3-0.2,0.6-0.4,0.8-0.6C31.8,37.3,31.6,37.5,31.3,37.6z M24.3,37.4c-0.1-0.1-0.3-0.2-0.4-0.3C24.1,37.2,24.2,37.3,24.3,37.4z
		 M23.4,36.6c0.1,0.1,0.2,0.1,0.2,0.2C23.6,36.7,23.5,36.7,23.4,36.6L23.4,36.6z M24,37.1c-0.1-0.1-0.2-0.2-0.3-0.3
		C23.7,36.9,23.8,37,24,37.1z M28.1,38.5c0.3,0,0.7,0,1-0.1C28.7,38.5,28.4,38.5,28.1,38.5z M29.8,38.3c0.3-0.1,0.5-0.2,0.8-0.3
		C30.3,38.1,30,38.2,29.8,38.3z M29.4,38.4c0.1,0,0.3-0.1,0.4-0.1C29.6,38.3,29.5,38.4,29.4,38.4z M29.1,38.5c0.1,0,0.2,0,0.3-0.1
		C29.3,38.4,29.2,38.4,29.1,38.5z M27.4,38.5h-0.1C27.3,38.5,27.3,38.5,27.4,38.5z M28,38.5c-0.2,0-0.4,0-0.6,0
		C27.6,38.5,27.8,38.5,28,38.5z M28,38.5C28,38.5,28.1,38.5,28,38.5L28,38.5L28,38.5z M27.3,38.5c-0.4,0-0.7-0.1-1.1-0.2
		C26.5,38.4,26.9,38.5,27.3,38.5z M26,38.2c-0.2-0.1-0.3-0.1-0.5-0.2C25.7,38.1,25.9,38.2,26,38.2z M25.5,38.1
		c-0.1,0-0.1-0.1-0.2-0.1C25.4,38,25.5,38,25.5,38.1z M25.3,38c-0.3-0.1-0.5-0.3-0.8-0.4C24.8,37.7,25.1,37.8,25.3,38z M24.5,37.5
		c-0.1,0-0.1-0.1-0.2-0.1C24.4,37.4,24.5,37.5,24.5,37.5z M26.2,38.3h-0.1C26.1,38.3,26.1,38.3,26.2,38.3z M21.9,33.9L21.9,33.9
		c-0.1-0.3-0.1-0.6-0.2-0.8C21.7,33.3,21.8,33.6,21.9,33.9z M31.2,37.7l0.1-0.1C31.2,37.7,31.1,37.7,31.2,37.7
		C31.1,37.8,31.1,37.8,31.2,37.7z M31.3,37.6c0.3-0.2,0.6-0.4,0.8-0.6C31.8,37.3,31.6,37.5,31.3,37.6z M23.4,36.6
		c0.1,0.1,0.2,0.1,0.2,0.2C23.6,36.7,23.5,36.7,23.4,36.6L23.4,36.6z M28.1,38.5c0.3,0,0.7,0,1-0.1C28.7,38.5,28.4,38.5,28.1,38.5z
		 M24.3,37.4c-0.1-0.1-0.3-0.2-0.4-0.3C24.1,37.2,24.2,37.3,24.3,37.4z M29.1,38.5c0.1,0,0.2,0,0.3-0.1
		C29.3,38.4,29.2,38.4,29.1,38.5z M24.5,37.5c-0.1,0-0.1-0.1-0.2-0.1C24.4,37.4,24.5,37.5,24.5,37.5z M29.8,38.3
		c0.3-0.1,0.5-0.2,0.8-0.3C30.3,38.1,30,38.2,29.8,38.3z M29.4,38.4c0.1,0,0.3-0.1,0.4-0.1C29.6,38.3,29.5,38.4,29.4,38.4z M24,37.1
		c-0.1-0.1-0.2-0.2-0.3-0.3C23.7,36.9,23.8,37,24,37.1z M27.4,38.5h-0.1C27.3,38.5,27.3,38.5,27.4,38.5z M27.3,38.5
		c-0.4,0-0.7-0.1-1.1-0.2C26.5,38.4,26.9,38.5,27.3,38.5z M28,38.5c-0.2,0-0.4,0-0.6,0C27.6,38.5,27.8,38.5,28,38.5z M28,38.5
		C28,38.5,28.1,38.5,28,38.5L28,38.5L28,38.5z M26.2,38.3h-0.1C26.1,38.3,26.1,38.3,26.2,38.3z M25.3,38c-0.3-0.1-0.5-0.3-0.8-0.4
		C24.8,37.7,25.1,37.8,25.3,38z M25.5,38.1c-0.1,0-0.1-0.1-0.2-0.1C25.4,38,25.5,38,25.5,38.1z M26,38.2c-0.2-0.1-0.3-0.1-0.5-0.2
		C25.7,38.1,25.9,38.2,26,38.2z M21.9,33.9L21.9,33.9c-0.1-0.3-0.1-0.6-0.2-0.8C21.7,33.3,21.8,33.6,21.9,33.9z M31.2,37.7l0.1-0.1
		C31.2,37.7,31.1,37.7,31.2,37.7C31.1,37.8,31.1,37.8,31.2,37.7z M31.3,37.6c0.3-0.2,0.6-0.4,0.8-0.6C31.8,37.3,31.6,37.5,31.3,37.6
		z M28.1,38.5c0.3,0,0.7,0,1-0.1C28.7,38.5,28.4,38.5,28.1,38.5z M24.3,37.4c-0.1-0.1-0.3-0.2-0.4-0.3
		C24.1,37.2,24.2,37.3,24.3,37.4z M24,37.1c-0.1-0.1-0.2-0.2-0.3-0.3C23.7,36.9,23.8,37,24,37.1z M23.4,36.6
		c0.1,0.1,0.2,0.1,0.2,0.2C23.6,36.7,23.5,36.7,23.4,36.6L23.4,36.6z M29.1,38.5c0.1,0,0.2,0,0.3-0.1C29.3,38.4,29.2,38.4,29.1,38.5
		z M29.8,38.3c0.3-0.1,0.5-0.2,0.8-0.3C30.3,38.1,30,38.2,29.8,38.3z M29.4,38.4c0.1,0,0.3-0.1,0.4-0.1
		C29.6,38.3,29.5,38.4,29.4,38.4z M28,38.5c-0.2,0-0.4,0-0.6,0C27.6,38.5,27.8,38.5,28,38.5z M24.5,37.5c-0.1,0-0.1-0.1-0.2-0.1
		C24.4,37.4,24.5,37.5,24.5,37.5z M28,38.5C28,38.5,28.1,38.5,28,38.5L28,38.5L28,38.5z M27.3,38.5c-0.4,0-0.7-0.1-1.1-0.2
		C26.5,38.4,26.9,38.5,27.3,38.5z M27.4,38.5h-0.1C27.3,38.5,27.3,38.5,27.4,38.5z M25.3,38c-0.3-0.1-0.5-0.3-0.8-0.4
		C24.8,37.7,25.1,37.8,25.3,38z M26.2,38.3h-0.1C26.1,38.3,26.1,38.3,26.2,38.3z M25.5,38.1c-0.1,0-0.1-0.1-0.2-0.1
		C25.4,38,25.5,38,25.5,38.1z M26,38.2c-0.2-0.1-0.3-0.1-0.5-0.2C25.7,38.1,25.9,38.2,26,38.2z M21.9,33.9L21.9,33.9
		c-0.1-0.3-0.1-0.6-0.2-0.8C21.7,33.3,21.8,33.6,21.9,33.9z"/>
	
		<linearGradient id="SVGID_00000101796205167961645620000008987604576240759180_" gradientUnits="userSpaceOnUse" x1="6.35" y1="2.5187" x2="6.35" y2="52.9595" gradientTransform="matrix(1 0 0 -1 0 54)">
		<stop  offset="0" style="stop-color:#FFFFFF;stop-opacity:0"/>
		<stop  offset="7.026155e-02" style="stop-color:#FFFFFF;stop-opacity:0.1447"/>
		<stop  offset="0.4855" style="stop-color:#FFFFFF"/>
	</linearGradient>
	<path style="opacity:0.9;fill:url(#SVGID_00000101796205167961645620000008987604576240759180_);enable-background:new    ;" d="
		M12.7,44.7c0,3.5-2.8,6.4-6.4,6.4S0,48.2,0,44.7s2.8-6.4,6.4-6.4c1.8,0,3.3,0.7,4.5,1.9c0.7,0.7,1.3,1.6,1.6,2.7
		C12.6,43.4,12.7,44.1,12.7,44.7z"/>
	
		<linearGradient id="SVGID_00000016791539346772219900000015857701781104779393_" gradientUnits="userSpaceOnUse" x1="50.3" y1="2.5187" x2="50.3" y2="52.9595" gradientTransform="matrix(1 0 0 -1 0 54)">
		<stop  offset="0" style="stop-color:#FFFFFF;stop-opacity:0"/>
		<stop  offset="7.026155e-02" style="stop-color:#FFFFFF;stop-opacity:0.1447"/>
		<stop  offset="0.4855" style="stop-color:#FFFFFF"/>
	</linearGradient>
	<path style="opacity:0.9;fill:url(#SVGID_00000016791539346772219900000015857701781104779393_);enable-background:new    ;" d="
		M56.7,44.7c0,3.5-2.8,6.4-6.4,6.4c-3.5,0-6.4-2.8-6.4-6.4c0-0.6,0.1-1.1,0.2-1.7c0.2-1,0.7-1.8,1.4-2.5l0,0
		c1.2-1.3,2.9-2.1,4.8-2.1C53.9,38.4,56.7,41.2,56.7,44.7z"/>
	
		<linearGradient id="SVGID_00000111894926660364708520000002237731261455016100_" gradientUnits="userSpaceOnUse" x1="27.9" y1="2.5187" x2="27.9" y2="52.9595" gradientTransform="matrix(1 0 0 -1 0 54)">
		<stop  offset="0" style="stop-color:#FFFFFF;stop-opacity:0"/>
		<stop  offset="7.026155e-02" style="stop-color:#FFFFFF;stop-opacity:0.1447"/>
		<stop  offset="0.4855" style="stop-color:#FFFFFF"/>
	</linearGradient>
	<path style="opacity:0.9;fill:url(#SVGID_00000111894926660364708520000002237731261455016100_);enable-background:new    ;" d="
		M34.2,6.4c0,3-2.1,5.6-5,6.2c-0.1,0-0.3,0.1-0.4,0.1c-0.3,0.1-0.6,0.1-0.9,0.1c-0.5,0-1.1-0.1-1.6-0.2h-0.1
		c-2.7-0.7-4.6-3.2-4.6-6.1c0-3.5,2.9-6.4,6.4-6.4C31.3,0,34.2,2.8,34.2,6.4z"/>
	
		<linearGradient id="SVGID_00000016059499089646955720000001714165443047932032_" gradientUnits="userSpaceOnUse" x1="28.2" y1="41.53" x2="28.2" y2="5.2408" gradientTransform="matrix(1 0 0 -1 0 54)">
		<stop  offset="0" style="stop-color:#D10C7D"/>
		<stop  offset="0.8948" style="stop-color:#52287B"/>
	</linearGradient>
	<path style="fill:url(#SVGID_00000016059499089646955720000001714165443047932032_);" d="M45.6,40.5L45.6,40.5
		c-0.7,0.7-1.1,1.6-1.4,2.5l-0.1,0.2l-3.6-2.1l-2.7-1.5l-2.5-1.4l-2.8-1.6l0,0c-0.1,0.2-0.3,0.3-0.4,0.4c-0.3,0.3-0.7,0.5-1,0.7
		c-0.2,0.1-0.4,0.2-0.6,0.3c-0.8,0.3-1.6,0.5-2.5,0.5c-1.8,0-3.4-0.8-4.6-2l0,0l-2.8,1.6L18,39.7l-2.7,1.5l-2.9,1.6
		c-0.3-1-0.9-1.9-1.6-2.7l2.9-1.7l2.7-1.5l2.6-1.5l2.8-1.6l0,0c-0.1-0.3-0.1-0.6-0.2-0.8c0,0,0,0,0-0.1c0-0.3,0-0.5,0-0.8l0,0
		c0-0.4,0-0.8,0.1-1.2c0-0.1,0.1-0.3,0.1-0.4c0.1-0.3,0.1-0.5,0.3-0.8c0.1-0.2,0.2-0.5,0.4-0.7c0.2-0.4,0.5-0.8,0.9-1.2
		c0.1-0.1,0.1-0.2,0.2-0.2c0.2-0.2,0.5-0.5,0.8-0.7c0.1-0.1,0.2-0.2,0.4-0.2c0.2-0.1,0.3-0.2,0.5-0.3l0.4-0.2
		c0.2-0.1,0.3-0.1,0.5-0.2v-3.2v-6.1v-4.3h0.1c0.5,0.1,1,0.2,1.6,0.2c0.3,0,0.6,0,0.9-0.1c0.1,0,0.3,0,0.4-0.1v4.2v6.1v3.1
		c0.1,0,0.3,0.1,0.4,0.1S29.9,26,30,26s0.3,0.1,0.4,0.1c0.2,0.1,0.3,0.1,0.5,0.2c0.1,0.1,0.2,0.1,0.3,0.2c0.2,0.1,0.3,0.2,0.5,0.3
		c0.1,0.1,0.3,0.2,0.4,0.3c0.3,0.2,0.5,0.5,0.8,0.8c0.1,0.1,0.2,0.3,0.3,0.4s0.1,0.2,0.2,0.3c0.4,0.7,0.7,1.4,0.8,2.2
		c0,0.2,0.1,0.4,0.1,0.6s0,0.4,0,0.6s0,0.3,0,0.5c0,0.5-0.1,0.9-0.2,1.3l2.8,1.6l2.5,1.4l2.7,1.5L45.6,40.5z"/>
</g>
</svg>
