<?xml version="1.0" encoding="utf-8"?>
<!-- Generator: Adobe Illustrator 26.3.1, SVG Export Plug-In . SVG Version: 6.00 Build 0)  -->
<svg version="1.1" id="Layer_1" xmlns="http://www.w3.org/2000/svg" xmlns:xlink="http://www.w3.org/1999/xlink" x="0px" y="0px"
	 viewBox="0 0 75.7 57.4" style="enable-background:new 0 0 75.7 57.4;" xml:space="preserve">
<style type="text/css">
	.st0{fill:url(#SVGID_1_);}
	.st1{fill:url(#SVGID_00000058547848719506748650000011646970326780021648_);}
	.st2{fill:url(#SVGID_00000140698714955029222330000011555601283576278433_);}
</style>
<g>
	
		<linearGradient id="SVGID_1_" gradientUnits="userSpaceOnUse" x1="5.7454" y1="1071.3564" x2="55.7845" y2="1025.4874" gradientTransform="matrix(1 0 0 1 0 -1021.6)">
		<stop  offset="0" style="stop-color:#FFFFFF;stop-opacity:0"/>
		<stop  offset="0.1386" style="stop-color:#FFFFFF;stop-opacity:0.1386"/>
		<stop  offset="1" style="stop-color:#FFFFFF"/>
	</linearGradient>
	<path class="st0" d="M57.4,28.7L57.4,28.7c0,1.1-0.1,2.1-0.2,3.1c0,0.2,0,0.5-0.1,0.7c-1.8,14.1-13.9,24.9-28.4,24.9
		C12.9,57.4,0,44.6,0,28.7C0,12.9,12.9,0,28.7,0c15.4,0,27.9,12,28.7,27.2C57.4,27.7,57.4,28.2,57.4,28.7z"/>
	
		<linearGradient id="SVGID_00000110455173399081746290000002448575404557759389_" gradientUnits="userSpaceOnUse" x1="78.5315" y1="1051.9" x2="13.6533" y2="1051.9" gradientTransform="matrix(1 0 0 1 0 -1021.6)">
		<stop  offset="0" style="stop-color:#D10C7D;stop-opacity:0.2"/>
		<stop  offset="0.5413" style="stop-color:#D10C7D"/>
		<stop  offset="0.8948" style="stop-color:#52287B"/>
	</linearGradient>
	<path style="fill:url(#SVGID_00000110455173399081746290000002448575404557759389_);" d="M39.9,28.7h-8.4c-0.7-3.9-4.1-6.8-8.2-6.8
		c-4.6,0-8.4,3.7-8.4,8.4s3.7,8.4,8.4,8.4c4.1,0,7.5-2.9,8.2-6.8h8.4c0.9,0,1.6-0.7,1.6-1.6C41.4,29.4,40.7,28.7,39.9,28.7z"/>
	
		<linearGradient id="SVGID_00000054969274437029833810000013405086532812263841_" gradientUnits="userSpaceOnUse" x1="78.5315" y1="1051.953" x2="13.6533" y2="1051.953" gradientTransform="matrix(1 0 0 1 0 -1021.6)">
		<stop  offset="0" style="stop-color:#D10C7D;stop-opacity:0.2"/>
		<stop  offset="0.5413" style="stop-color:#D10C7D"/>
		<stop  offset="0.8948" style="stop-color:#52287B"/>
	</linearGradient>
	<path style="fill:url(#SVGID_00000054969274437029833810000013405086532812263841_);" d="M75.3,31.3l-7,8.5
		c-0.3,0.4-0.8,0.6-1.2,0.6c-0.3,0-0.7-0.1-1-0.4c-0.7-0.6-0.8-1.5-0.2-2.2l4.9-5.9H57.2c0.1-1,0.2-2.1,0.2-3.1l0,0h13.4l-5-5.9
		c-0.6-0.7-0.5-1.7,0.2-2.2c0.7-0.6,1.7-0.5,2.2,0.2l7.1,8.5C75.8,29.8,75.8,30.7,75.3,31.3z"/>
</g>
</svg>
